<svg width="41" height="26" viewBox="0 0 41 26" fill="none" xmlns="http://www.w3.org/2000/svg">
<g id="&#240;&#159;&#166;&#134; icon &#34;Bars&#34;">
<path id="Vector" d="M1.44964 4.75553H39.1403C39.941 4.75553 40.59 4.28242 40.59 3.69875V1.05679C40.59 0.473109 39.941 0 39.1403 0H1.44964C0.648987 0 0 0.473109 0 1.05679V3.69875C0 4.28242 0.648987 4.75553 1.44964 4.75553ZM1.44964 15.3234H39.1403C39.941 15.3234 40.59 14.8503 40.59 14.2666V11.6246C40.59 11.041 39.941 10.5679 39.1403 10.5679H1.44964C0.648987 10.5679 0 11.041 0 11.6246V14.2666C0 14.8503 0.648987 15.3234 1.44964 15.3234ZM1.44964 25.8912H39.1403C39.941 25.8912 40.59 25.4181 40.59 24.8344V22.1925C40.59 21.6088 39.941 21.1357 39.1403 21.1357H1.44964C0.648987 21.1357 0 21.6088 0 22.1925V24.8344C0 25.4181 0.648987 25.8912 1.44964 25.8912Z" fill="black"/>
</g>
</svg>
