<svg width="18" height="22" viewBox="0 0 90 118" fill="none" xmlns="http://www.w3.org/2000/svg" style="margin-bottom: -5px;"><path d="M82.7332 100.468C75.9562 105.628 65.8779 117.184 45.1755 117.184C21.0497 117.184 8.80542 105.08 4.04938 98.0975C4.04938 98.0975 11.0881 102.474 13.5866 100.468C17.7831 97.097 -15.8491 86.7885 9.82761 49.1574C10.3252 54.2557 10.5883 67.2384 20.0222 64.8893C29.456 62.5402 17.997 47.2916 32.1031 26.2721C44.6729 36.6072 42.6733 7.18956 40.7781 0.450317C93.6167 33.6549 63.0135 53.5989 76.1376 58.4288C80.1789 59.916 82.7332 49.1575 82.7332 49.1575C102.986 87.1757 72.8113 99.5318 74.117 101.211C75.1615 102.553 80.8059 101.027 82.7332 100.468Z" fill="#F72800"></path><path d="M14.2885 24.7823C11.7793 33.9148 2.51637 34.1298 4.85573 47.6136C13.5072 42.6869 16.2111 35.6573 14.2885 24.7823Z" fill="#F72800"></path><path d="M74.8091 90.2781C70.7139 101.952 60.9362 115.744 45.0715 115.744C28.7859 115.744 11.1716 96.749 15.3225 76.4739C15.3225 76.4739 18.297 85.2367 24.9312 82.8722C34.0237 79.6315 29.8638 66.6563 34.4392 56.5312C40.7376 42.5933 48.7314 43.984 47.0691 31.5646C74.3521 51.4068 50.6278 68.1217 62.2743 75.239C65.3495 77.1183 70.5778 73.8371 70.5778 73.8371C73.5973 78.7976 66.9427 87.1296 69.0174 89.7971C71.0922 92.4647 74.8091 90.2781 74.8091 90.2781Z" fill="#FF9240"></path><path d="M64.7799 92.7884C64.7799 101.808 56.5977 114.773 44.9853 114.773C32.9416 114.773 22.7742 104.647 24.5277 89.1974C24.5277 89.1974 26.8302 92.4975 30.3723 91.4523C35.4665 89.949 33.126 84.8981 36.4932 77.4466C41.1284 67.1892 46.4529 65.3646 48.2067 57.3474C58.3958 70.4588 46.1039 78.6983 54.6749 83.9361C56.9381 85.3192 63.7544 83.4788 63.7544 83.4788C63.7544 88.0282 56.4827 90.937 58.767 93.8741C61.0514 96.8111 64.7799 92.7884 64.7799 92.7884Z" fill="#FFD44C"></path><path d="M59.6184 96.4046C60.0245 102.039 53.5153 114.201 44.8479 114.201C35.8587 114.201 28.8708 106.342 30.1796 94.811C30.1796 94.811 31.8397 97.6878 34.4835 96.9077C37.1272 96.1275 35.6118 93.0344 38.125 87.4728C41.5847 79.8168 44.9694 81.6885 46.2784 75.7046C53.5473 85.0583 47.8617 89.571 53.4587 94.2041C55.6147 95.9887 59.6184 96.4046 59.6184 96.4046Z" fill="#FFE48F"></path><path d="M52.7543 105.561C52.9719 108.58 49.4838 113.762 44.8394 113.762C40.0224 113.762 36.2779 110.886 36.9793 104.707C36.9793 104.707 38.3176 105.572 39.2855 105.83C44.1913 107.139 45.3285 95.7366 45.6059 94.4684C49.5011 99.4806 45.3027 103.676 48.853 105.83C50.0233 106.54 52.7543 105.561 52.7543 105.561Z" fill="#FFF3CB"></path></svg>